<?xml version="1.0" encoding="utf-8"?>
<!-- Generator: Adobe Illustrator 19.0.0, SVG Export Plug-In . SVG Version: 6.00 Build 0)  -->
<svg version="1.1" id="Layer_1" xmlns="http://www.w3.org/2000/svg" xmlns:xlink="http://www.w3.org/1999/xlink" x="0px" y="0px"
	 viewBox="148.6 11.9 307.7 321.4" style="enable-background:new 148.6 11.9 307.7 321.4;" xml:space="preserve">
<style type="text/css">
	.st0{fill:#221E20;}
</style>
<path class="st0" d="M365.5,643"/>
<path class="st0" d="M422.5,616"/>
<polygon points="347.4,372.8 347.9,373.8 347.3,373.6 "/>
<path d="M182.4,96.5L182.4,96.5c18-24.2,48-36.9,77.3-29.6c17.3,4.3,31.5,14.8,41.2,28.9c9.7-16.1,24.9-28.3,43.8-33
	c29.4-7.3,59.3,5.3,77.3,29.6v-0.1l7.7,6.3l8.9-2c0.1,0.3,0.2,0.5,0.3,0.8c-8.1-30.5-19.7-59.9-35.1-79.3
	c-13.3-16.9-6.8,10.5-55,21.2c-19.5,4.3-29.9,3.5-45.8,3.5c-18.7,0-25.3-1.1-45.5-4.7c-41.9-7.4-40.4-37.7-53.3-21.6
	c-16.7,20.8-29.8,52.3-38.5,84.2l8.9,2L182.4,96.5z"/>
<path d="M450,109.6c-18-5.4-23.2-5.6-24.4-5.5c-1.8-1.7-3.7-3.2-5.9-4.4c-9.3-4.9-23.8-10.1-35.5-10.1c0,0-11.7-0.6-15.5-0.1
	c-20.5,2.6-39.2,8.1-49,20.4c-4.2-2-18.8-7.6-32.5,0.9c-9.1-14.3-29-20.4-51-23.1c-3.8-0.5-15.5,0.1-15.5,0.1
	c-11.7,0.1-26.3,5.2-35.5,10.1c-2.2,1.2-4.1,2.7-5.9,4.4c-1.3-0.1-6.5,0.1-24.4,5.5c-2.1,0.6-6.2,1.2-6.3,7.4c0,4,0.1,5.8,6.3,7
	c3.3,0.7,14.3,0.8,12.2,5.2l0.1-0.2c-0.8,5.3-1,10.6-0.2,15.5c0,0,4.5,21,7,27.7c8,21.4,16.2,32.7,45.4,35.6c5.9,0.6,23.8,0,23.8,0
	c25.9-0.1,45.2-25.4,47.6-51.2L292,136c0.6-4.9,0.4-9.3-0.3-13.3c2.9-1.5,11.8-5.1,21.8-0.1c-1.1,4.5-1.4,9.5-0.7,15.2l1.3,18.8
	c2.4,25.9,21.6,51.1,47.6,51.2c0,0,18,1.5,23.8,0c28.6-7.5,34.6-15.5,44.8-36c3.8-7.5,7.6-27.4,7.6-27.4c0.7-4.9,0.6-10.2-0.2-15.5
	l0.1,0.2c-2-4.4,9-4.6,12.2-5.2c6.2-1.3,6.3-3,6.3-7C456.2,110.9,452.1,110.2,450,109.6z M278.5,130.4l-1.4,24.7
	c-1.9,20.1-17.8,33.4-36.6,39.5c0,0-14.4,0.5-19.2,0c-23.5-2.2-30.1-11-36.6-27.7c-2-5.2-5.7-21.6-5.7-21.6
	c-2-12.7,3-28.9,14.7-34.9c7.5-3.8,19.2-7.9,28.7-7.9c0,0,9.4-0.4,12.5-0.1C260.7,105.6,282.6,118.7,278.5,130.4z M425.8,147.2
	c0,0-3.7,16.4-5.7,21.6c-6.5,16.7-13.1,25.5-36.6,27.7c-4.8,0.5-19.2,0-19.2,0c-18.8-6.1-34.7-19.4-36.6-39.5l-1.4-24.7
	c-4.1-11.8,17.8-24.8,43.7-27.9c3.1-0.4,12.5,0.1,12.5,0.1c9.5,0.1,21.2,4.1,28.7,7.9C422.8,118.3,427.8,134.6,425.8,147.2z"/>
<polygon points="445.8,126.8 442.8,132.6 446.2,131.9 "/>
<polygon points="158.5,131.3 161.4,137.1 158,136.3 "/>
<circle cx="237.5" cy="155.1" r="20.9"/>
<circle cx="361.3" cy="155.1" r="20.9"/>
<path d="M452.5,187.2c-0.3-16.3-2.5-36.9-6.5-58.3c0.2,1.9,0.3,3,0.3,3l-3.4,0.8c-2.5,19.9-5.4,33.8-9.2,42.9
	c-0.2,0.4-7.5,14.8-7.5,14.8c-9.7,14-25.6,23.3-43.1,26.5c-26.1,4.8-63.2-18-63.2-18s-17.1,10.3-16.8,18.6v0.2
	c0.3-8.3-16.9-17.6-16.9-17.6s-33.7,26.3-65.2,22.5c-17.7-2.1-31.5-14.8-41.2-28.8l0,0c0,0-3.3-3.8-7.3-13.1
	c-0.2-0.4-0.3-0.8-0.5-1.2c-3.7-9-7.9-22.8-10.4-42.6l-3.4-0.8c0,0,0.1-1,0.3-2.7c-3.7,20.2-5.3,39.2-4.7,53.8
	c4.7,109.8,102.7,144.3,102.7,144.3l18-11c0,0,20.8,12.8,28.6,12.8c9,0,27.8-13.6,27.8-13.6l17.5,10.7
	C348.5,330.4,454.8,297.3,452.5,187.2z M214.2,259.8c-12.6-1.5-16.9-11-16.4-15.1s3.9,8.1,16.5,9.6s21.7-6.4,21.2-2.3
	C234.9,256.1,226.8,261.3,214.2,259.8z M258.4,280.6c-0.5,4.1-8.7,9.3-21.3,7.8s-16.9-11-16.4-15.1s3.9,8.1,16.5,9.6
	S258.9,276.5,258.4,280.6z M296.1,260.1c-0.5,4.1-8.7,9.3-21.3,7.8c-12.6-1.5-16.9-11-16.4-15.1s3.9,8.1,16.5,9.6
	C287.6,264,296.6,256,296.1,260.1z M337.8,276.5c-0.5,4.1-9.2,13.4-21.8,11.9s-16.9-11-16.4-15.1s3.9,8.1,16.5,9.6
	S338.3,272.4,337.8,276.5z M329,260.1c-0.5-4.1,8.5,3.8,21.2,2.3s16-13.7,16.5-9.6c0.5,4.1-3.8,13.5-16.4,15.1
	S329.5,264.2,329,260.1z M381.3,288.4c-12.6,1.5-20.8-3.7-21.3-7.8c-0.5-4.1,8.5,3.8,21.2,2.3c12.6-1.5,16-13.7,16.5-9.6
	S393.9,286.9,381.3,288.4z M400.2,255.7c-12.6,1.5-20.8-3.7-21.3-7.8s8.5,3.8,21.2,2.3s16-13.7,16.5-9.6
	C417,244.7,412.8,254.2,400.2,255.7z"/>
</svg>
